<svg width="2012" height="1995" viewBox="0 0 2012 1995" fill="none" xmlns="http://www.w3.org/2000/svg">
<path d="M988.5 371L1176.08 850.197H1783.11L1292.01 1146.36L1479.59 1625.55L988.5 1329.39L497.405 1625.55L684.987 1146.36L193.892 850.197H800.919L988.5 371Z" fill="#FFFF00"/>
<path d="M588.421 442.368L1008.89 726.719L1435.8 405.585L1268.75 902.458L1689.21 1186.81L1165.5 1209.54L998.444 1706.41L841.829 1223.59L318.118 1246.32L745.036 925.19L588.421 442.368Z" fill="#FFFF00"/>
<ellipse cx="989.321" cy="1033.5" rx="387.321" ry="353.5" fill="#FFA500"/>
<g filter="url(#filter0_d_537_2708)">
<mask id="path-4-outside-1_537_2708" maskUnits="userSpaceOnUse" x="803" y="948" width="356" height="176" fill="black">
<rect fill="white" x="803" y="948" width="356" height="176"/>
<path d="M858.105 970H850.355C849.897 967.771 849.095 965.812 847.949 964.125C846.824 962.438 845.449 961.021 843.824 959.875C842.22 958.708 840.439 957.833 838.48 957.25C836.522 956.667 834.48 956.375 832.355 956.375C828.48 956.375 824.97 957.354 821.824 959.312C818.699 961.271 816.21 964.156 814.355 967.969C812.522 971.781 811.605 976.458 811.605 982C811.605 987.542 812.522 992.219 814.355 996.031C816.21 999.844 818.699 1002.73 821.824 1004.69C824.97 1006.65 828.48 1007.62 832.355 1007.62C834.48 1007.62 836.522 1007.33 838.48 1006.75C840.439 1006.17 842.22 1005.3 843.824 1004.16C845.449 1002.99 846.824 1001.56 847.949 999.875C849.095 998.167 849.897 996.208 850.355 994H858.105C857.522 997.271 856.46 1000.2 854.918 1002.78C853.376 1005.36 851.46 1007.56 849.168 1009.37C846.876 1011.17 844.303 1012.53 841.449 1013.47C838.616 1014.41 835.585 1014.87 832.355 1014.87C826.897 1014.87 822.043 1013.54 817.793 1010.88C813.543 1008.21 810.199 1004.42 807.762 999.5C805.324 994.583 804.105 988.75 804.105 982C804.105 975.25 805.324 969.417 807.762 964.5C810.199 959.583 813.543 955.792 817.793 953.125C822.043 950.458 826.897 949.125 832.355 949.125C835.585 949.125 838.616 949.594 841.449 950.531C844.303 951.469 846.876 952.844 849.168 954.656C851.46 956.448 853.376 958.635 854.918 961.219C856.46 963.781 857.522 966.708 858.105 970ZM924.629 982C924.629 988.75 923.41 994.583 920.973 999.5C918.535 1004.42 915.191 1008.21 910.941 1010.88C906.691 1013.54 901.837 1014.87 896.379 1014.87C890.921 1014.87 886.066 1013.54 881.816 1010.88C877.566 1008.21 874.223 1004.42 871.785 999.5C869.348 994.583 868.129 988.75 868.129 982C868.129 975.25 869.348 969.417 871.785 964.5C874.223 959.583 877.566 955.792 881.816 953.125C886.066 950.458 890.921 949.125 896.379 949.125C901.837 949.125 906.691 950.458 910.941 953.125C915.191 955.792 918.535 959.583 920.973 964.5C923.41 969.417 924.629 975.25 924.629 982ZM917.129 982C917.129 976.458 916.202 971.781 914.348 967.969C912.514 964.156 910.025 961.271 906.879 959.312C903.754 957.354 900.254 956.375 896.379 956.375C892.504 956.375 888.993 957.354 885.848 959.312C882.723 961.271 880.233 964.156 878.379 967.969C876.546 971.781 875.629 976.458 875.629 982C875.629 987.542 876.546 992.219 878.379 996.031C880.233 999.844 882.723 1002.73 885.848 1004.69C888.993 1006.65 892.504 1007.62 896.379 1007.62C900.254 1007.62 903.754 1006.65 906.879 1004.69C910.025 1002.73 912.514 999.844 914.348 996.031C916.202 992.219 917.129 987.542 917.129 982ZM937.66 950H946.91L968.66 1003.12H969.41L991.16 950H1000.41V1014H993.16V965.375H992.535L972.535 1014H965.535L945.535 965.375H944.91V1014H937.66V950ZM1023.7 950V1014H1015.95V950H1023.7ZM1089.99 950V1014H1082.49L1047.61 963.75H1046.99V1014H1039.24V950H1046.74L1081.74 1000.37H1082.36V950H1089.99ZM1149.25 970C1148.56 967.896 1147.65 966.01 1146.53 964.344C1145.42 962.656 1144.1 961.219 1142.56 960.031C1141.04 958.844 1139.31 957.937 1137.37 957.312C1135.43 956.687 1133.31 956.375 1131 956.375C1127.2 956.375 1123.76 957.354 1120.65 959.312C1117.55 961.271 1115.08 964.156 1113.25 967.969C1111.41 971.781 1110.5 976.458 1110.5 982C1110.5 987.542 1111.42 992.219 1113.28 996.031C1115.13 999.844 1117.64 1002.73 1120.81 1004.69C1123.98 1006.65 1127.54 1007.62 1131.5 1007.62C1135.16 1007.62 1138.39 1006.84 1141.18 1005.28C1144 1003.7 1146.18 1001.47 1147.75 998.594C1149.33 995.698 1150.12 992.292 1150.12 988.375L1152.5 988.875H1133.25V982H1157.62V988.875C1157.62 994.146 1156.5 998.729 1154.25 1002.62C1152.02 1006.52 1148.93 1009.54 1145 1011.69C1141.08 1013.81 1136.58 1014.87 1131.5 1014.87C1125.83 1014.87 1120.85 1013.54 1116.56 1010.88C1112.29 1008.21 1108.95 1004.42 1106.56 999.5C1104.18 994.583 1103 988.75 1103 982C1103 976.937 1103.67 972.385 1105.03 968.344C1106.4 964.281 1108.34 960.823 1110.84 957.969C1113.34 955.115 1116.3 952.927 1119.71 951.406C1123.13 949.885 1126.89 949.125 1131 949.125C1134.37 949.125 1137.52 949.635 1140.43 950.656C1143.37 951.656 1145.99 953.083 1148.28 954.937C1150.59 956.771 1152.52 958.969 1154.06 961.531C1155.6 964.073 1156.66 966.896 1157.25 970H1149.25ZM895.531 1073C895.156 1069.83 893.635 1067.38 890.969 1065.62C888.302 1063.87 885.031 1063 881.156 1063C878.323 1063 875.844 1063.46 873.719 1064.37C871.615 1065.29 869.969 1066.55 868.781 1068.16C867.615 1069.76 867.031 1071.58 867.031 1073.62C867.031 1075.33 867.438 1076.8 868.25 1078.03C869.083 1079.24 870.146 1080.25 871.438 1081.06C872.729 1081.85 874.083 1082.51 875.5 1083.03C876.917 1083.53 878.219 1083.94 879.406 1084.25L885.906 1086C887.573 1086.44 889.427 1087.04 891.469 1087.81C893.531 1088.58 895.5 1089.64 897.375 1090.97C899.271 1092.28 900.833 1093.97 902.063 1096.03C903.292 1098.09 903.906 1100.62 903.906 1103.62C903.906 1107.08 903 1110.21 901.188 1113C899.396 1115.79 896.771 1118.01 893.313 1119.66C889.875 1121.3 885.698 1122.13 880.781 1122.13C876.198 1122.13 872.229 1121.39 868.875 1119.91C865.542 1118.43 862.917 1116.36 861 1113.72C859.104 1111.07 858.031 1108 857.781 1104.5H865.781C865.99 1106.92 866.802 1108.92 868.219 1110.5C869.656 1112.06 871.469 1113.23 873.656 1114C875.865 1114.75 878.24 1115.12 880.781 1115.12C883.74 1115.12 886.396 1114.65 888.75 1113.69C891.104 1112.71 892.969 1111.35 894.344 1109.62C895.719 1107.87 896.406 1105.83 896.406 1103.5C896.406 1101.37 895.813 1099.65 894.625 1098.31C893.438 1096.98 891.875 1095.9 889.938 1095.06C888 1094.23 885.906 1093.5 883.656 1092.87L875.781 1090.62C870.781 1089.19 866.823 1087.14 863.906 1084.47C860.99 1081.8 859.531 1078.31 859.531 1074C859.531 1070.42 860.5 1067.29 862.438 1064.62C864.396 1061.94 867.021 1059.85 870.312 1058.37C873.625 1056.87 877.323 1056.12 881.406 1056.12C885.531 1056.12 889.198 1056.86 892.406 1058.34C895.615 1059.8 898.156 1061.8 900.031 1064.34C901.927 1066.89 902.927 1069.77 903.031 1073H895.531ZM970.648 1089C970.648 1095.75 969.43 1101.58 966.992 1106.5C964.555 1111.42 961.211 1115.21 956.961 1117.88C952.711 1120.54 947.857 1121.87 942.398 1121.87C936.94 1121.87 932.086 1120.54 927.836 1117.88C923.586 1115.21 920.242 1111.42 917.805 1106.5C915.367 1101.58 914.148 1095.75 914.148 1089C914.148 1082.25 915.367 1076.42 917.805 1071.5C920.242 1066.58 923.586 1062.79 927.836 1060.12C932.086 1057.46 936.94 1056.12 942.398 1056.12C947.857 1056.12 952.711 1057.46 956.961 1060.12C961.211 1062.79 964.555 1066.58 966.992 1071.5C969.43 1076.42 970.648 1082.25 970.648 1089ZM963.148 1089C963.148 1083.46 962.221 1078.78 960.367 1074.97C958.534 1071.16 956.044 1068.27 952.898 1066.31C949.773 1064.35 946.273 1063.37 942.398 1063.37C938.523 1063.37 935.013 1064.35 931.867 1066.31C928.742 1068.27 926.253 1071.16 924.398 1074.97C922.565 1078.78 921.648 1083.46 921.648 1089C921.648 1094.54 922.565 1099.22 924.398 1103.03C926.253 1106.84 928.742 1109.73 931.867 1111.69C935.013 1113.65 938.523 1114.62 942.398 1114.62C946.273 1114.62 949.773 1113.65 952.898 1111.69C956.044 1109.73 958.534 1106.84 960.367 1103.03C962.221 1099.22 963.148 1094.54 963.148 1089ZM1037.68 1089C1037.68 1095.75 1036.46 1101.58 1034.02 1106.5C1031.59 1111.42 1028.24 1115.21 1023.99 1117.88C1019.74 1120.54 1014.89 1121.87 1009.43 1121.87C1003.97 1121.87 999.117 1120.54 994.867 1117.88C990.617 1115.21 987.273 1111.42 984.836 1106.5C982.398 1101.58 981.18 1095.75 981.18 1089C981.18 1082.25 982.398 1076.42 984.836 1071.5C987.273 1066.58 990.617 1062.79 994.867 1060.12C999.117 1057.46 1003.97 1056.12 1009.43 1056.12C1014.89 1056.12 1019.74 1057.46 1023.99 1060.12C1028.24 1062.79 1031.59 1066.58 1034.02 1071.5C1036.46 1076.42 1037.68 1082.25 1037.68 1089ZM1030.18 1089C1030.18 1083.46 1029.25 1078.78 1027.4 1074.97C1025.57 1071.16 1023.08 1068.27 1019.93 1066.31C1016.8 1064.35 1013.3 1063.37 1009.43 1063.37C1005.55 1063.37 1002.04 1064.35 998.898 1066.31C995.773 1068.27 993.284 1071.16 991.43 1074.97C989.596 1078.78 988.68 1083.46 988.68 1089C988.68 1094.54 989.596 1099.22 991.43 1103.03C993.284 1106.84 995.773 1109.73 998.898 1111.69C1002.04 1113.65 1005.55 1114.62 1009.43 1114.62C1013.3 1114.62 1016.8 1113.65 1019.93 1111.69C1023.08 1109.73 1025.57 1106.84 1027.4 1103.03C1029.25 1099.22 1030.18 1094.54 1030.18 1089ZM1101.46 1057V1121H1093.96L1059.09 1070.75H1058.46V1121H1050.71V1057H1058.21L1093.21 1107.37H1093.84V1057H1101.46Z"/>
</mask>
<path d="M858.105 970H850.355C849.897 967.771 849.095 965.812 847.949 964.125C846.824 962.438 845.449 961.021 843.824 959.875C842.22 958.708 840.439 957.833 838.48 957.25C836.522 956.667 834.48 956.375 832.355 956.375C828.48 956.375 824.97 957.354 821.824 959.312C818.699 961.271 816.21 964.156 814.355 967.969C812.522 971.781 811.605 976.458 811.605 982C811.605 987.542 812.522 992.219 814.355 996.031C816.21 999.844 818.699 1002.73 821.824 1004.69C824.97 1006.65 828.48 1007.62 832.355 1007.62C834.48 1007.62 836.522 1007.33 838.48 1006.75C840.439 1006.17 842.22 1005.3 843.824 1004.16C845.449 1002.99 846.824 1001.56 847.949 999.875C849.095 998.167 849.897 996.208 850.355 994H858.105C857.522 997.271 856.46 1000.2 854.918 1002.78C853.376 1005.36 851.46 1007.56 849.168 1009.37C846.876 1011.17 844.303 1012.53 841.449 1013.47C838.616 1014.41 835.585 1014.87 832.355 1014.87C826.897 1014.87 822.043 1013.54 817.793 1010.88C813.543 1008.21 810.199 1004.42 807.762 999.5C805.324 994.583 804.105 988.75 804.105 982C804.105 975.25 805.324 969.417 807.762 964.5C810.199 959.583 813.543 955.792 817.793 953.125C822.043 950.458 826.897 949.125 832.355 949.125C835.585 949.125 838.616 949.594 841.449 950.531C844.303 951.469 846.876 952.844 849.168 954.656C851.46 956.448 853.376 958.635 854.918 961.219C856.46 963.781 857.522 966.708 858.105 970ZM924.629 982C924.629 988.75 923.41 994.583 920.973 999.5C918.535 1004.42 915.191 1008.21 910.941 1010.88C906.691 1013.54 901.837 1014.87 896.379 1014.87C890.921 1014.87 886.066 1013.54 881.816 1010.88C877.566 1008.21 874.223 1004.42 871.785 999.5C869.348 994.583 868.129 988.75 868.129 982C868.129 975.25 869.348 969.417 871.785 964.5C874.223 959.583 877.566 955.792 881.816 953.125C886.066 950.458 890.921 949.125 896.379 949.125C901.837 949.125 906.691 950.458 910.941 953.125C915.191 955.792 918.535 959.583 920.973 964.5C923.41 969.417 924.629 975.25 924.629 982ZM917.129 982C917.129 976.458 916.202 971.781 914.348 967.969C912.514 964.156 910.025 961.271 906.879 959.312C903.754 957.354 900.254 956.375 896.379 956.375C892.504 956.375 888.993 957.354 885.848 959.312C882.723 961.271 880.233 964.156 878.379 967.969C876.546 971.781 875.629 976.458 875.629 982C875.629 987.542 876.546 992.219 878.379 996.031C880.233 999.844 882.723 1002.73 885.848 1004.69C888.993 1006.65 892.504 1007.62 896.379 1007.62C900.254 1007.62 903.754 1006.65 906.879 1004.69C910.025 1002.73 912.514 999.844 914.348 996.031C916.202 992.219 917.129 987.542 917.129 982ZM937.66 950H946.91L968.66 1003.12H969.41L991.16 950H1000.41V1014H993.16V965.375H992.535L972.535 1014H965.535L945.535 965.375H944.91V1014H937.66V950ZM1023.7 950V1014H1015.95V950H1023.7ZM1089.99 950V1014H1082.49L1047.61 963.75H1046.99V1014H1039.24V950H1046.74L1081.74 1000.37H1082.36V950H1089.99ZM1149.25 970C1148.56 967.896 1147.65 966.01 1146.53 964.344C1145.42 962.656 1144.1 961.219 1142.56 960.031C1141.04 958.844 1139.31 957.937 1137.37 957.312C1135.43 956.687 1133.31 956.375 1131 956.375C1127.2 956.375 1123.76 957.354 1120.65 959.312C1117.55 961.271 1115.08 964.156 1113.25 967.969C1111.41 971.781 1110.5 976.458 1110.5 982C1110.5 987.542 1111.42 992.219 1113.28 996.031C1115.13 999.844 1117.64 1002.73 1120.81 1004.69C1123.98 1006.65 1127.54 1007.62 1131.5 1007.62C1135.16 1007.62 1138.39 1006.84 1141.18 1005.28C1144 1003.7 1146.18 1001.47 1147.75 998.594C1149.33 995.698 1150.12 992.292 1150.12 988.375L1152.5 988.875H1133.25V982H1157.62V988.875C1157.62 994.146 1156.5 998.729 1154.25 1002.62C1152.02 1006.52 1148.93 1009.54 1145 1011.69C1141.08 1013.81 1136.58 1014.87 1131.5 1014.87C1125.83 1014.87 1120.85 1013.54 1116.56 1010.88C1112.29 1008.21 1108.95 1004.42 1106.56 999.5C1104.18 994.583 1103 988.75 1103 982C1103 976.937 1103.67 972.385 1105.03 968.344C1106.4 964.281 1108.34 960.823 1110.84 957.969C1113.34 955.115 1116.3 952.927 1119.71 951.406C1123.13 949.885 1126.89 949.125 1131 949.125C1134.37 949.125 1137.52 949.635 1140.43 950.656C1143.37 951.656 1145.99 953.083 1148.28 954.937C1150.59 956.771 1152.52 958.969 1154.06 961.531C1155.6 964.073 1156.66 966.896 1157.25 970H1149.25ZM895.531 1073C895.156 1069.83 893.635 1067.38 890.969 1065.62C888.302 1063.87 885.031 1063 881.156 1063C878.323 1063 875.844 1063.46 873.719 1064.37C871.615 1065.29 869.969 1066.55 868.781 1068.16C867.615 1069.76 867.031 1071.58 867.031 1073.62C867.031 1075.33 867.438 1076.8 868.25 1078.03C869.083 1079.24 870.146 1080.25 871.438 1081.06C872.729 1081.85 874.083 1082.51 875.5 1083.03C876.917 1083.53 878.219 1083.94 879.406 1084.25L885.906 1086C887.573 1086.44 889.427 1087.04 891.469 1087.81C893.531 1088.58 895.5 1089.64 897.375 1090.97C899.271 1092.28 900.833 1093.97 902.063 1096.03C903.292 1098.09 903.906 1100.62 903.906 1103.62C903.906 1107.08 903 1110.21 901.188 1113C899.396 1115.79 896.771 1118.01 893.313 1119.66C889.875 1121.3 885.698 1122.13 880.781 1122.13C876.198 1122.13 872.229 1121.39 868.875 1119.91C865.542 1118.43 862.917 1116.36 861 1113.72C859.104 1111.07 858.031 1108 857.781 1104.5H865.781C865.99 1106.92 866.802 1108.92 868.219 1110.5C869.656 1112.06 871.469 1113.23 873.656 1114C875.865 1114.75 878.24 1115.12 880.781 1115.12C883.74 1115.12 886.396 1114.65 888.75 1113.69C891.104 1112.71 892.969 1111.35 894.344 1109.62C895.719 1107.87 896.406 1105.83 896.406 1103.5C896.406 1101.37 895.813 1099.65 894.625 1098.31C893.438 1096.98 891.875 1095.9 889.938 1095.06C888 1094.23 885.906 1093.5 883.656 1092.87L875.781 1090.62C870.781 1089.19 866.823 1087.14 863.906 1084.47C860.99 1081.8 859.531 1078.31 859.531 1074C859.531 1070.42 860.5 1067.29 862.438 1064.62C864.396 1061.94 867.021 1059.85 870.312 1058.37C873.625 1056.87 877.323 1056.12 881.406 1056.12C885.531 1056.12 889.198 1056.86 892.406 1058.34C895.615 1059.8 898.156 1061.8 900.031 1064.34C901.927 1066.89 902.927 1069.77 903.031 1073H895.531ZM970.648 1089C970.648 1095.75 969.43 1101.58 966.992 1106.5C964.555 1111.42 961.211 1115.21 956.961 1117.88C952.711 1120.54 947.857 1121.87 942.398 1121.87C936.94 1121.87 932.086 1120.54 927.836 1117.88C923.586 1115.21 920.242 1111.42 917.805 1106.5C915.367 1101.58 914.148 1095.75 914.148 1089C914.148 1082.25 915.367 1076.42 917.805 1071.5C920.242 1066.58 923.586 1062.79 927.836 1060.12C932.086 1057.46 936.94 1056.12 942.398 1056.12C947.857 1056.12 952.711 1057.46 956.961 1060.12C961.211 1062.79 964.555 1066.58 966.992 1071.5C969.43 1076.42 970.648 1082.25 970.648 1089ZM963.148 1089C963.148 1083.46 962.221 1078.78 960.367 1074.97C958.534 1071.16 956.044 1068.27 952.898 1066.31C949.773 1064.35 946.273 1063.37 942.398 1063.37C938.523 1063.37 935.013 1064.35 931.867 1066.31C928.742 1068.27 926.253 1071.16 924.398 1074.97C922.565 1078.78 921.648 1083.46 921.648 1089C921.648 1094.54 922.565 1099.22 924.398 1103.03C926.253 1106.84 928.742 1109.73 931.867 1111.69C935.013 1113.65 938.523 1114.62 942.398 1114.62C946.273 1114.62 949.773 1113.65 952.898 1111.69C956.044 1109.73 958.534 1106.84 960.367 1103.03C962.221 1099.22 963.148 1094.54 963.148 1089ZM1037.68 1089C1037.68 1095.75 1036.46 1101.58 1034.02 1106.5C1031.59 1111.42 1028.24 1115.21 1023.99 1117.88C1019.74 1120.54 1014.89 1121.87 1009.43 1121.87C1003.97 1121.87 999.117 1120.54 994.867 1117.88C990.617 1115.21 987.273 1111.42 984.836 1106.5C982.398 1101.58 981.18 1095.75 981.18 1089C981.18 1082.25 982.398 1076.42 984.836 1071.5C987.273 1066.58 990.617 1062.79 994.867 1060.12C999.117 1057.46 1003.97 1056.12 1009.43 1056.12C1014.89 1056.12 1019.74 1057.46 1023.99 1060.12C1028.24 1062.79 1031.59 1066.58 1034.02 1071.5C1036.46 1076.42 1037.68 1082.25 1037.68 1089ZM1030.18 1089C1030.18 1083.46 1029.25 1078.78 1027.4 1074.97C1025.57 1071.16 1023.08 1068.27 1019.93 1066.31C1016.8 1064.35 1013.3 1063.37 1009.43 1063.37C1005.55 1063.37 1002.04 1064.35 998.898 1066.31C995.773 1068.27 993.284 1071.16 991.43 1074.97C989.596 1078.78 988.68 1083.46 988.68 1089C988.68 1094.54 989.596 1099.22 991.43 1103.03C993.284 1106.84 995.773 1109.73 998.898 1111.69C1002.04 1113.65 1005.55 1114.62 1009.43 1114.62C1013.3 1114.62 1016.8 1113.65 1019.93 1111.69C1023.08 1109.73 1025.57 1106.84 1027.4 1103.03C1029.25 1099.22 1030.18 1094.54 1030.18 1089ZM1101.46 1057V1121H1093.96L1059.09 1070.75H1058.46V1121H1050.71V1057H1058.21L1093.21 1107.37H1093.84V1057H1101.46Z" fill="black"/>
<path d="M858.105 970V971H859.298L859.09 969.826L858.105 970ZM850.355 970L849.376 970.201L849.54 971H850.355V970ZM847.949 964.125L847.117 964.68L847.122 964.687L847.949 964.125ZM843.824 959.875L843.236 960.684L843.242 960.688L843.248 960.692L843.824 959.875ZM838.48 957.25L838.195 958.208L838.195 958.208L838.48 957.25ZM821.824 959.312L821.296 958.464L821.293 958.465L821.824 959.312ZM814.355 967.969L813.456 967.531L813.454 967.535L814.355 967.969ZM814.355 996.031L813.454 996.465L813.456 996.469L814.355 996.031ZM821.824 1004.69L821.293 1005.53L821.296 1005.54L821.824 1004.69ZM838.48 1006.75L838.195 1005.79L838.195 1005.79L838.48 1006.75ZM843.824 1004.16L844.405 1004.97L844.407 1004.97L843.824 1004.16ZM847.949 999.875L847.119 999.318L847.117 999.32L847.949 999.875ZM850.355 994V993H849.542L849.376 993.797L850.355 994ZM858.105 994L859.09 994.176L859.3 993H858.105V994ZM854.918 1002.78L854.059 1002.27L854.059 1002.27L854.918 1002.78ZM849.168 1009.37L849.784 1010.16L849.788 1010.16L849.168 1009.37ZM841.449 1013.47L841.137 1012.52L841.135 1012.52L841.449 1013.47ZM817.793 1010.88L817.261 1011.72L817.261 1011.72L817.793 1010.88ZM807.762 999.5L808.658 999.056L808.658 999.056L807.762 999.5ZM841.449 950.531L841.135 951.481L841.137 951.481L841.449 950.531ZM849.168 954.656L848.548 955.441L848.552 955.444L849.168 954.656ZM854.918 961.219L854.059 961.731L854.061 961.734L854.918 961.219ZM858.105 969H850.355V971H858.105V969ZM851.335 969.799C850.853 967.455 850.004 965.372 848.777 963.563L847.122 964.687C848.186 966.253 848.941 968.086 849.376 970.201L851.335 969.799ZM848.781 963.57C847.589 961.782 846.128 960.276 844.4 959.058L843.248 960.692C844.77 961.766 846.059 963.093 847.117 964.68L848.781 963.57ZM844.412 959.066C842.714 957.831 840.83 956.906 838.766 956.292L838.195 958.208C840.048 958.76 841.726 959.586 843.236 960.684L844.412 959.066ZM838.766 956.292C836.711 955.68 834.573 955.375 832.355 955.375V957.375C834.388 957.375 836.333 957.654 838.195 958.208L838.766 956.292ZM832.355 955.375C828.303 955.375 824.608 956.402 821.296 958.464L822.353 960.161C825.333 958.306 828.658 957.375 832.355 957.375V955.375ZM821.293 958.465C817.987 960.537 815.38 963.576 813.456 967.531L815.255 968.406C817.04 964.736 819.412 962.005 822.355 960.16L821.293 958.465ZM813.454 967.535C811.539 971.518 810.605 976.353 810.605 982H812.605C812.605 976.564 813.505 972.044 815.257 968.402L813.454 967.535ZM810.605 982C810.605 987.647 811.539 992.482 813.454 996.465L815.257 995.598C813.505 991.956 812.605 987.436 812.605 982H810.605ZM813.456 996.469C815.38 1000.42 817.987 1003.46 821.293 1005.53L822.355 1003.84C819.412 1002 817.04 999.264 815.255 995.594L813.456 996.469ZM821.296 1005.54C824.608 1007.6 828.303 1008.62 832.355 1008.62V1006.62C828.658 1006.62 825.333 1005.69 822.353 1003.84L821.296 1005.54ZM832.355 1008.62C834.573 1008.62 836.711 1008.32 838.766 1007.71L838.195 1005.79C836.333 1006.35 834.388 1006.62 832.355 1006.62V1008.62ZM838.766 1007.71C840.826 1007.09 842.708 1006.18 844.405 1004.97L843.243 1003.34C841.732 1004.42 840.051 1005.24 838.195 1005.79L838.766 1007.71ZM844.407 1004.97C846.132 1003.73 847.59 1002.22 848.781 1000.43L847.117 999.32C846.058 1000.91 844.767 1002.25 843.241 1003.34L844.407 1004.97ZM848.78 1000.43C850.004 998.607 850.853 996.526 851.335 994.203L849.376 993.797C848.942 995.891 848.186 997.727 847.119 999.318L848.78 1000.43ZM850.355 995H858.105V993H850.355V995ZM857.121 993.824C856.557 996.989 855.533 999.8 854.059 1002.27L855.777 1003.29C857.386 1000.6 858.488 997.553 859.09 994.176L857.121 993.824ZM854.059 1002.27C852.578 1004.75 850.741 1006.86 848.548 1008.59L849.788 1010.16C852.178 1008.27 854.175 1005.98 855.777 1003.29L854.059 1002.27ZM848.552 1008.59C846.355 1010.31 843.885 1011.62 841.137 1012.52L841.761 1014.42C844.722 1013.45 847.398 1012.03 849.784 1010.16L848.552 1008.59ZM841.135 1012.52C838.411 1013.42 835.487 1013.87 832.355 1013.87V1015.87C835.683 1015.87 838.821 1015.39 841.763 1014.42L841.135 1012.52ZM832.355 1013.87C827.068 1013.87 822.401 1012.59 818.324 1010.03L817.261 1011.72C821.685 1014.5 826.726 1015.87 832.355 1015.87V1013.87ZM818.324 1010.03C814.245 1007.47 811.021 1003.82 808.658 999.056L806.866 999.944C809.377 1005.01 812.841 1008.95 817.261 1011.72L818.324 1010.03ZM808.658 999.056C806.303 994.305 805.105 988.631 805.105 982H803.105C803.105 988.869 804.346 994.861 806.866 999.944L808.658 999.056ZM805.105 982C805.105 975.369 806.303 969.695 808.658 964.944L806.866 964.056C804.346 969.139 803.105 975.131 803.105 982H805.105ZM808.658 964.944C811.021 960.177 814.245 956.532 818.324 953.972L817.261 952.278C812.841 955.052 809.377 958.99 806.866 964.056L808.658 964.944ZM818.324 953.972C822.401 951.414 827.068 950.125 832.355 950.125V948.125C826.726 948.125 821.685 949.503 817.261 952.278L818.324 953.972ZM832.355 950.125C835.487 950.125 838.411 950.579 841.135 951.481L841.763 949.582C838.821 948.608 835.683 948.125 832.355 948.125V950.125ZM841.137 951.481C843.883 952.383 846.351 953.703 848.548 955.441L849.788 953.872C847.402 951.984 844.724 950.554 841.761 949.581L841.137 951.481ZM848.552 955.444C850.743 957.157 852.579 959.25 854.059 961.731L855.777 960.706C854.174 958.021 852.176 955.739 849.784 953.868L848.552 955.444ZM854.061 961.734C855.533 964.18 856.556 966.989 857.121 970.174L859.09 969.826C858.488 966.427 857.387 963.382 855.775 960.703L854.061 961.734ZM920.973 999.5L920.077 999.056L920.077 999.056L920.973 999.5ZM910.941 1010.88L911.473 1011.72L911.473 1011.72L910.941 1010.88ZM881.816 1010.88L881.285 1011.72L881.285 1011.72L881.816 1010.88ZM871.785 999.5L872.681 999.056L872.681 999.056L871.785 999.5ZM910.941 953.125L911.473 952.278L911.473 952.278L910.941 953.125ZM920.973 964.5L920.077 964.944L920.077 964.944L920.973 964.5ZM914.348 967.969L913.446 968.402L913.448 968.406L914.348 967.969ZM906.879 959.312L906.348 960.16L906.35 960.161L906.879 959.312ZM885.848 959.312L885.319 958.464L885.317 958.465L885.848 959.312ZM878.379 967.969L877.48 967.531L877.478 967.535L878.379 967.969ZM878.379 996.031L877.478 996.465L877.48 996.469L878.379 996.031ZM885.848 1004.69L885.317 1005.53L885.319 1005.54L885.848 1004.69ZM906.879 1004.69L906.35 1003.84L906.348 1003.84L906.879 1004.69ZM914.348 996.031L913.448 995.594L913.446 995.598L914.348 996.031ZM923.629 982C923.629 988.631 922.432 994.305 920.077 999.056L921.869 999.944C924.388 994.861 925.629 988.869 925.629 982H923.629ZM920.077 999.056C917.713 1003.82 914.489 1007.47 910.41 1010.03L911.473 1011.72C915.894 1008.95 919.357 1005.01 921.869 999.944L920.077 999.056ZM910.41 1010.03C906.333 1012.59 901.666 1013.87 896.379 1013.87V1015.87C902.008 1015.87 907.05 1014.5 911.473 1011.72L910.41 1010.03ZM896.379 1013.87C891.091 1013.87 886.425 1012.59 882.348 1010.03L881.285 1011.72C885.708 1014.5 890.75 1015.87 896.379 1015.87V1013.87ZM882.348 1010.03C878.269 1007.47 875.045 1003.82 872.681 999.056L870.889 999.944C873.401 1005.01 876.864 1008.95 881.285 1011.72L882.348 1010.03ZM872.681 999.056C870.326 994.305 869.129 988.631 869.129 982H867.129C867.129 988.869 868.369 994.861 870.889 999.944L872.681 999.056ZM869.129 982C869.129 975.369 870.326 969.695 872.681 964.944L870.889 964.056C868.369 969.139 867.129 975.131 867.129 982H869.129ZM872.681 964.944C875.045 960.177 878.269 956.532 882.348 953.972L881.285 952.278C876.864 955.052 873.401 958.99 870.889 964.056L872.681 964.944ZM882.348 953.972C886.425 951.414 891.091 950.125 896.379 950.125V948.125C890.75 948.125 885.708 949.503 881.285 952.278L882.348 953.972ZM896.379 950.125C901.666 950.125 906.333 951.414 910.41 953.972L911.473 952.278C907.05 949.503 902.008 948.125 896.379 948.125V950.125ZM910.41 953.972C914.489 956.532 917.713 960.177 920.077 964.944L921.869 964.056C919.357 958.99 915.894 955.052 911.473 952.278L910.41 953.972ZM920.077 964.944C922.432 969.695 923.629 975.369 923.629 982H925.629C925.629 975.131 924.388 969.139 921.869 964.056L920.077 964.944ZM918.129 982C918.129 976.352 917.185 971.515 915.247 967.531L913.448 968.406C915.219 972.047 916.129 976.565 916.129 982H918.129ZM915.249 967.535C913.345 963.577 910.736 960.536 907.407 958.464L906.35 960.161C909.313 962.006 911.683 964.736 913.446 968.402L915.249 967.535ZM907.41 958.465C904.118 956.402 900.432 955.375 896.379 955.375V957.375C900.076 957.375 903.39 958.306 906.348 960.16L907.41 958.465ZM896.379 955.375C892.326 955.375 888.631 956.402 885.319 958.464L886.376 960.161C889.356 958.306 892.682 957.375 896.379 957.375V955.375ZM885.317 958.465C882.01 960.537 879.403 963.576 877.48 967.531L879.278 968.406C881.063 964.736 883.435 962.005 886.379 960.16L885.317 958.465ZM877.478 967.535C875.562 971.518 874.629 976.353 874.629 982H876.629C876.629 976.564 877.529 972.044 879.28 968.402L877.478 967.535ZM874.629 982C874.629 987.647 875.562 992.482 877.478 996.465L879.28 995.598C877.529 991.956 876.629 987.436 876.629 982H874.629ZM877.48 996.469C879.403 1000.42 882.01 1003.46 885.317 1005.53L886.379 1003.84C883.435 1002 881.063 999.264 879.278 995.594L877.48 996.469ZM885.319 1005.54C888.631 1007.6 892.326 1008.62 896.379 1008.62V1006.62C892.682 1006.62 889.356 1005.69 886.376 1003.84L885.319 1005.54ZM896.379 1008.62C900.432 1008.62 904.118 1007.6 907.41 1005.53L906.348 1003.84C903.39 1005.69 900.076 1006.62 896.379 1006.62V1008.62ZM907.407 1005.54C910.736 1003.46 913.345 1000.42 915.249 996.465L913.446 995.598C911.683 999.264 909.313 1001.99 906.35 1003.84L907.407 1005.54ZM915.247 996.469C917.185 992.485 918.129 987.648 918.129 982H916.129C916.129 987.435 915.219 991.953 913.448 995.594L915.247 996.469ZM937.66 950V949H936.66V950H937.66ZM946.91 950L947.836 949.621L947.581 949H946.91V950ZM968.66 1003.12L967.735 1003.5L967.989 1004.12H968.66V1003.12ZM969.41 1003.12V1004.12H970.081L970.336 1003.5L969.41 1003.12ZM991.16 950V949H990.489L990.235 949.621L991.16 950ZM1000.41 950H1001.41V949H1000.41V950ZM1000.41 1014V1015H1001.41V1014H1000.41ZM993.16 1014H992.16V1015H993.16V1014ZM993.16 965.375H994.16V964.375H993.16V965.375ZM992.535 965.375V964.375H991.865L991.61 964.995L992.535 965.375ZM972.535 1014V1015H973.205L973.46 1014.38L972.535 1014ZM965.535 1014L964.61 1014.38L964.865 1015H965.535V1014ZM945.535 965.375L946.46 964.995L946.205 964.375H945.535V965.375ZM944.91 965.375V964.375H943.91V965.375H944.91ZM944.91 1014V1015H945.91V1014H944.91ZM937.66 1014H936.66V1015H937.66V1014ZM937.66 951H946.91V949H937.66V951ZM945.985 950.379L967.735 1003.5L969.586 1002.75L947.836 949.621L945.985 950.379ZM968.66 1004.12H969.41V1002.12H968.66V1004.12ZM970.336 1003.5L992.086 950.379L990.235 949.621L968.485 1002.75L970.336 1003.5ZM991.16 951H1000.41V949H991.16V951ZM999.41 950V1014H1001.41V950H999.41ZM1000.41 1013H993.16V1015H1000.41V1013ZM994.16 1014V965.375H992.16V1014H994.16ZM993.16 964.375H992.535V966.375H993.16V964.375ZM991.61 964.995L971.61 1013.62L973.46 1014.38L993.46 965.755L991.61 964.995ZM972.535 1013H965.535V1015H972.535V1013ZM966.46 1013.62L946.46 964.995L944.61 965.755L964.61 1014.38L966.46 1013.62ZM945.535 964.375H944.91V966.375H945.535V964.375ZM943.91 965.375V1014H945.91V965.375H943.91ZM944.91 1013H937.66V1015H944.91V1013ZM938.66 1014V950H936.66V1014H938.66ZM1023.7 950H1024.7V949H1023.7V950ZM1023.7 1014V1015H1024.7V1014H1023.7ZM1015.95 1014H1014.95V1015H1015.95V1014ZM1015.95 950V949H1014.95V950H1015.95ZM1022.7 950V1014H1024.7V950H1022.7ZM1023.7 1013H1015.95V1015H1023.7V1013ZM1016.95 1014V950H1014.95V1014H1016.95ZM1015.95 951H1023.7V949H1015.95V951ZM1089.99 950H1090.99V949H1089.99V950ZM1089.99 1014V1015H1090.99V1014H1089.99ZM1082.49 1014L1081.67 1014.57L1081.97 1015H1082.49V1014ZM1047.61 963.75L1048.43 963.18L1048.14 962.75H1047.61V963.75ZM1046.99 963.75V962.75H1045.99V963.75H1046.99ZM1046.99 1014V1015H1047.99V1014H1046.99ZM1039.24 1014H1038.24V1015H1039.24V1014ZM1039.24 950V949H1038.24V950H1039.24ZM1046.74 950L1047.56 949.429L1047.26 949H1046.74V950ZM1081.74 1000.37L1080.92 1000.95L1081.22 1001.37H1081.74V1000.37ZM1082.36 1000.37V1001.37H1083.36V1000.37H1082.36ZM1082.36 950V949H1081.36V950H1082.36ZM1088.99 950V1014H1090.99V950H1088.99ZM1089.99 1013H1082.49V1015H1089.99V1013ZM1083.31 1013.43L1048.43 963.18L1046.79 964.32L1081.67 1014.57L1083.31 1013.43ZM1047.61 962.75H1046.99V964.75H1047.61V962.75ZM1045.99 963.75V1014H1047.99V963.75H1045.99ZM1046.99 1013H1039.24V1015H1046.99V1013ZM1040.24 1014V950H1038.24V1014H1040.24ZM1039.24 951H1046.74V949H1039.24V951ZM1045.92 950.571L1080.92 1000.95L1082.56 999.804L1047.56 949.429L1045.92 950.571ZM1081.74 1001.37H1082.36V999.375H1081.74V1001.37ZM1083.36 1000.37V950H1081.36V1000.37H1083.36ZM1082.36 951H1089.99V949H1082.36V951ZM1149.25 970L1148.3 970.311L1148.52 971H1149.25V970ZM1146.53 964.344L1145.69 964.891L1145.69 964.897L1145.7 964.903L1146.53 964.344ZM1142.56 960.031L1141.94 960.819L1141.95 960.823L1142.56 960.031ZM1137.37 957.312L1137.68 956.361L1137.68 956.361L1137.37 957.312ZM1113.25 967.969L1114.15 968.402L1114.15 968.402L1113.25 967.969ZM1113.28 996.031L1112.38 996.469L1112.38 996.469L1113.28 996.031ZM1120.81 1004.69L1120.28 1005.54L1120.81 1004.69ZM1141.18 1005.28L1141.67 1006.15L1141.67 1006.15L1141.18 1005.28ZM1147.75 998.594L1146.87 998.114L1146.87 998.116L1147.75 998.594ZM1150.12 988.375L1150.33 987.396L1149.12 987.143V988.375H1150.12ZM1152.5 988.875V989.875L1152.7 987.896L1152.5 988.875ZM1133.25 988.875H1132.25V989.875H1133.25V988.875ZM1133.25 982V981H1132.25V982H1133.25ZM1157.62 982H1158.62V981H1157.62V982ZM1154.25 1002.62L1153.38 1002.12L1153.38 1002.13L1154.25 1002.62ZM1145 1011.69L1145.47 1012.57L1145.47 1012.57L1145 1011.69ZM1116.56 1010.88L1116.03 1011.72L1116.03 1011.72L1116.56 1010.88ZM1106.56 999.5L1105.66 999.935L1105.66 999.938L1106.56 999.5ZM1105.03 968.344L1104.08 968.023L1104.08 968.026L1105.03 968.344ZM1110.84 957.969L1111.59 958.628L1111.59 958.628L1110.84 957.969ZM1119.71 951.406L1120.12 952.32L1119.71 951.406ZM1140.43 950.656L1140.1 951.6L1140.11 951.603L1140.43 950.656ZM1148.28 954.937L1147.65 955.715L1147.66 955.721L1148.28 954.937ZM1154.06 961.531L1153.2 962.047L1153.2 962.05L1154.06 961.531ZM1157.25 970V971H1158.45L1158.23 969.815L1157.25 970ZM1150.2 969.689C1149.48 967.506 1148.54 965.535 1147.36 963.784L1145.7 964.903C1146.77 966.486 1147.63 968.286 1148.3 970.311L1150.2 969.689ZM1147.36 963.796C1146.2 962.018 1144.8 960.497 1143.17 959.239L1141.95 960.823C1143.4 961.94 1144.65 963.294 1145.69 964.891L1147.36 963.796ZM1143.17 959.243C1141.56 957.979 1139.72 957.02 1137.68 956.361L1137.06 958.264C1138.9 958.855 1140.52 959.708 1141.94 960.819L1143.17 959.243ZM1137.68 956.361C1135.63 955.7 1133.4 955.375 1131 955.375V957.375C1133.22 957.375 1135.24 957.675 1137.06 958.264L1137.68 956.361ZM1131 955.375C1127.02 955.375 1123.39 956.404 1120.12 958.467L1121.19 960.158C1124.12 958.304 1127.39 957.375 1131 957.375V955.375ZM1120.12 958.467C1116.83 960.54 1114.25 963.58 1112.34 967.535L1114.15 968.402C1115.91 964.733 1118.26 962.002 1121.19 960.158L1120.12 958.467ZM1112.34 967.535C1110.43 971.518 1109.5 976.353 1109.5 982H1111.5C1111.5 976.564 1112.4 972.044 1114.15 968.402L1112.34 967.535ZM1109.5 982C1109.5 987.648 1110.44 992.485 1112.38 996.469L1114.18 995.594C1112.41 991.953 1111.5 987.435 1111.5 982H1109.5ZM1112.38 996.469C1114.3 1000.43 1116.93 1003.47 1120.28 1005.54L1121.33 1003.84C1118.35 1001.99 1115.96 999.26 1114.18 995.594L1112.38 996.469ZM1120.28 1005.54C1123.62 1007.6 1127.36 1008.62 1131.5 1008.62V1006.62C1127.71 1006.62 1124.33 1005.69 1121.33 1003.84L1120.28 1005.54ZM1131.5 1008.62C1135.31 1008.62 1138.71 1007.81 1141.67 1006.15L1140.7 1004.41C1138.07 1005.88 1135.02 1006.62 1131.5 1006.62V1008.62ZM1141.67 1006.15C1144.65 1004.48 1146.97 1002.11 1148.62 999.071L1146.87 998.116C1145.39 1000.83 1143.34 1002.92 1140.69 1004.41L1141.67 1006.15ZM1148.62 999.073C1150.3 996.005 1151.12 992.428 1151.12 988.375H1149.12C1149.12 992.155 1148.36 995.391 1146.87 998.114L1148.62 999.073ZM1149.92 989.354L1152.29 989.854L1152.7 987.896L1150.33 987.396L1149.92 989.354ZM1152.5 987.875H1133.25V989.875H1152.5V987.875ZM1134.25 988.875V982H1132.25V988.875H1134.25ZM1133.25 983H1157.62V981H1133.25V983ZM1156.62 982V988.875H1158.62V982H1156.62ZM1156.62 988.875C1156.62 994.001 1155.53 998.405 1153.38 1002.12L1155.11 1003.13C1157.46 999.053 1158.62 994.291 1158.62 988.875H1156.62ZM1153.38 1002.13C1151.24 1005.86 1148.29 1008.75 1144.52 1010.81L1145.47 1012.57C1149.57 1010.33 1152.79 1007.18 1155.11 1003.12L1153.38 1002.13ZM1144.52 1010.81C1140.77 1012.84 1136.44 1013.87 1131.5 1013.87V1015.87C1136.72 1015.87 1141.39 1014.78 1145.47 1012.57L1144.52 1010.81ZM1131.5 1013.87C1125.99 1013.87 1121.2 1012.58 1117.09 1010.03L1116.03 1011.72C1120.5 1014.5 1125.67 1015.87 1131.5 1015.87V1013.87ZM1117.09 1010.03C1112.99 1007.47 1109.78 1003.83 1107.46 999.062L1105.66 999.938C1108.13 1005.01 1111.59 1008.95 1116.03 1011.72L1117.09 1010.03ZM1107.46 999.065C1105.16 994.312 1104 988.634 1104 982H1102C1102 988.866 1103.2 994.854 1105.66 999.935L1107.46 999.065ZM1104 982C1104 977.026 1104.66 972.584 1105.98 968.661L1104.08 968.026C1102.68 972.187 1102 976.849 1102 982H1104ZM1105.97 968.664C1107.31 964.71 1109.19 961.371 1111.59 958.628L1110.09 957.31C1107.49 960.275 1105.49 963.852 1104.08 968.023L1105.97 968.664ZM1111.59 958.628C1114 955.881 1116.84 953.781 1120.12 952.32L1119.31 950.493C1115.76 952.073 1112.68 954.348 1110.09 957.31L1111.59 958.628ZM1120.12 952.32C1123.4 950.861 1127.02 950.125 1131 950.125V948.125C1126.77 948.125 1122.86 948.91 1119.31 950.493L1120.12 952.32ZM1131 950.125C1134.27 950.125 1137.3 950.62 1140.1 951.6L1140.76 949.712C1137.73 948.651 1134.47 948.125 1131 948.125V950.125ZM1140.11 951.603C1142.94 952.567 1145.45 953.939 1147.65 955.715L1148.91 954.16C1146.52 952.228 1143.8 950.746 1140.76 949.71L1140.11 951.603ZM1147.66 955.721C1149.87 957.479 1151.72 959.586 1153.2 962.047L1154.92 961.016C1153.31 958.352 1151.31 956.063 1148.9 954.154L1147.66 955.721ZM1153.2 962.05C1154.68 964.483 1155.7 967.191 1156.26 970.185L1158.23 969.815C1157.62 966.601 1156.52 963.663 1154.91 961.013L1153.2 962.05ZM1157.25 969H1149.25V971H1157.25V969ZM895.531 1073L894.538 1073.12L894.643 1074H895.531V1073ZM890.969 1065.62L890.42 1066.46L890.42 1066.46L890.969 1065.62ZM873.719 1064.37L873.323 1063.46L873.319 1063.46L873.719 1064.37ZM868.781 1068.16L867.977 1067.56L867.973 1067.57L868.781 1068.16ZM868.25 1078.03L867.416 1078.58L867.421 1078.59L867.427 1078.6L868.25 1078.03ZM871.438 1081.06L870.905 1081.91L870.915 1081.92L871.438 1081.06ZM875.5 1083.03L875.155 1083.97L875.167 1083.97L875.5 1083.03ZM879.406 1084.25L879.666 1083.28L879.661 1083.28L879.406 1084.25ZM885.906 1086L885.646 1086.97L885.652 1086.97L885.906 1086ZM891.469 1087.81L891.116 1088.75L891.119 1088.75L891.469 1087.81ZM897.375 1090.97L896.795 1091.78L896.806 1091.79L897.375 1090.97ZM902.063 1096.03L902.922 1095.52L902.922 1095.52L902.063 1096.03ZM901.188 1113L900.349 1112.46L900.346 1112.46L901.188 1113ZM893.313 1119.66L892.883 1118.75L892.881 1118.75L893.313 1119.66ZM868.875 1119.91L868.469 1120.82L868.472 1120.82L868.875 1119.91ZM861 1113.72L860.187 1114.3L860.19 1114.31L861 1113.72ZM857.781 1104.5V1103.5H856.707L856.784 1104.57L857.781 1104.5ZM865.781 1104.5L866.778 1104.41L866.699 1103.5H865.781V1104.5ZM868.219 1110.5L867.473 1111.17L867.483 1111.18L868.219 1110.5ZM873.656 1114L873.324 1114.94L873.335 1114.95L873.656 1114ZM888.75 1113.69L889.127 1114.61L889.134 1114.61L888.75 1113.69ZM894.344 1109.62L895.126 1110.25L895.13 1110.24L894.344 1109.62ZM894.625 1098.31L895.372 1097.65L895.372 1097.65L894.625 1098.31ZM889.938 1095.06L889.542 1095.98L889.542 1095.98L889.938 1095.06ZM883.656 1092.87L883.382 1093.84L883.389 1093.84L883.656 1092.87ZM875.781 1090.62L875.505 1091.59L875.507 1091.59L875.781 1090.62ZM863.906 1084.47L863.231 1085.21L863.231 1085.21L863.906 1084.47ZM862.438 1064.62L861.629 1064.04L861.628 1064.04L862.438 1064.62ZM870.312 1058.37L870.722 1059.29L870.725 1059.29L870.312 1058.37ZM892.406 1058.34L891.988 1059.25L891.992 1059.25L892.406 1058.34ZM900.031 1064.34L899.227 1064.94L899.23 1064.94L900.031 1064.34ZM903.031 1073V1074H904.064L904.031 1072.97L903.031 1073ZM896.524 1072.88C896.115 1069.42 894.431 1066.7 891.517 1064.79L890.42 1066.46C892.84 1068.05 894.198 1070.24 894.538 1073.12L896.524 1072.88ZM891.517 1064.79C888.656 1062.91 885.184 1062 881.156 1062V1064C884.879 1064 887.949 1064.84 890.42 1066.46L891.517 1064.79ZM881.156 1062C878.216 1062 875.597 1062.48 873.323 1063.46L874.115 1065.29C876.09 1064.44 878.429 1064 881.156 1064V1062ZM873.319 1063.46C871.079 1064.43 869.284 1065.8 867.978 1067.56L869.585 1068.75C870.653 1067.31 872.15 1066.15 874.118 1065.29L873.319 1063.46ZM867.973 1067.57C866.678 1069.35 866.031 1071.38 866.031 1073.62H868.031C868.031 1071.79 868.551 1070.17 869.59 1068.74L867.973 1067.57ZM866.031 1073.62C866.031 1075.5 866.479 1077.17 867.416 1078.58L869.084 1077.48C868.396 1076.44 868.031 1075.17 868.031 1073.62H866.031ZM867.427 1078.6C868.34 1079.92 869.503 1081.03 870.905 1081.91L871.97 1080.22C870.788 1079.47 869.826 1078.56 869.073 1077.46L867.427 1078.6ZM870.915 1081.92C872.263 1082.74 873.676 1083.43 875.155 1083.97L875.845 1082.09C874.49 1081.59 873.196 1080.97 871.96 1080.21L870.915 1081.92ZM875.167 1083.97C876.604 1084.48 877.933 1084.9 879.152 1085.22L879.661 1083.28C878.505 1082.98 877.229 1082.58 875.833 1082.09L875.167 1083.97ZM879.146 1085.22L885.646 1086.97L886.166 1085.03L879.666 1083.28L879.146 1085.22ZM885.652 1086.97C887.278 1087.39 889.098 1087.99 891.116 1088.75L891.822 1086.88C889.756 1086.1 887.868 1085.48 886.16 1085.03L885.652 1086.97ZM891.119 1088.75C893.096 1089.49 894.988 1090.5 896.795 1091.78L897.955 1090.15C896.012 1088.77 893.966 1087.68 891.819 1086.88L891.119 1088.75ZM896.806 1091.79C898.579 1093.02 900.044 1094.6 901.203 1096.54L902.922 1095.52C901.622 1093.34 899.963 1091.54 897.944 1090.15L896.806 1091.79ZM901.203 1096.54C902.32 1098.42 902.906 1100.76 902.906 1103.62H904.906C904.906 1100.49 904.263 1097.77 902.922 1095.52L901.203 1096.54ZM902.906 1103.62C902.906 1106.9 902.052 1109.83 900.349 1112.46L902.026 1113.54C903.948 1110.58 904.906 1107.27 904.906 1103.62H902.906ZM900.346 1112.46C898.67 1115.07 896.199 1117.17 892.883 1118.75L893.742 1120.56C897.342 1118.85 900.122 1116.51 902.029 1113.54L900.346 1112.46ZM892.881 1118.75C889.611 1120.32 885.59 1121.13 880.781 1121.13V1123.13C885.806 1123.13 890.139 1122.28 893.744 1120.56L892.881 1118.75ZM880.781 1121.13C876.303 1121.13 872.478 1120.4 869.279 1118.99L868.472 1120.82C871.98 1122.37 876.093 1123.13 880.781 1123.13V1121.13ZM869.281 1118.99C866.089 1117.58 863.611 1115.62 861.81 1113.13L860.19 1114.31C862.222 1117.11 864.994 1119.28 868.469 1120.82L869.281 1118.99ZM861.813 1113.14C860.033 1110.65 859.017 1107.76 858.779 1104.43L856.784 1104.57C857.046 1108.24 858.175 1111.49 860.187 1114.3L861.813 1113.14ZM857.781 1105.5H865.781V1103.5H857.781V1105.5ZM864.785 1104.59C865.009 1107.19 865.892 1109.4 867.474 1111.17L868.964 1109.83C867.712 1108.43 866.97 1106.65 866.778 1104.41L864.785 1104.59ZM867.483 1111.18C869.041 1112.87 870.997 1114.12 873.324 1114.94L873.989 1113.06C871.941 1112.34 870.271 1111.25 868.955 1109.82L867.483 1111.18ZM873.335 1114.95C875.655 1115.74 878.14 1116.12 880.781 1116.12V1114.12C878.339 1114.12 876.074 1113.76 873.978 1113.05L873.335 1114.95ZM880.781 1116.12C883.848 1116.12 886.635 1115.63 889.127 1114.61L888.373 1112.76C886.156 1113.66 883.631 1114.12 880.781 1114.12V1116.12ZM889.134 1114.61C891.62 1113.58 893.631 1112.13 895.126 1110.25L893.561 1109C892.307 1110.58 890.588 1111.84 888.366 1112.76L889.134 1114.61ZM895.13 1110.24C896.651 1108.31 897.406 1106.05 897.406 1103.5H895.406C895.406 1105.62 894.787 1107.44 893.557 1109.01L895.13 1110.24ZM897.406 1103.5C897.406 1101.18 896.752 1099.2 895.372 1097.65L893.878 1098.98C894.873 1100.09 895.406 1101.57 895.406 1103.5H897.406ZM895.372 1097.65C894.071 1096.19 892.38 1095.02 890.333 1094.14L889.542 1095.98C891.37 1096.77 892.804 1097.77 893.878 1098.98L895.372 1097.65ZM890.333 1094.14C888.35 1093.29 886.213 1092.55 883.924 1091.91L883.389 1093.84C885.6 1094.45 887.65 1095.17 889.542 1095.98L890.333 1094.14ZM883.931 1091.91L876.056 1089.66L875.507 1091.59L883.382 1093.84L883.931 1091.91ZM876.058 1089.66C871.161 1088.26 867.354 1086.27 864.581 1083.73L863.231 1085.21C866.292 1088.01 870.402 1090.12 875.505 1091.59L876.058 1089.66ZM864.581 1083.73C861.892 1081.27 860.531 1078.06 860.531 1074H858.531C858.531 1078.56 860.087 1082.33 863.231 1085.21L864.581 1083.73ZM860.531 1074C860.531 1070.61 861.444 1067.69 863.247 1065.21L861.628 1064.04C859.556 1066.89 858.531 1070.22 858.531 1074H860.531ZM863.246 1065.21C865.093 1062.68 867.575 1060.7 870.722 1059.29L869.903 1057.46C866.466 1059.01 863.699 1061.2 861.629 1064.04L863.246 1065.21ZM870.725 1059.29C873.893 1057.85 877.448 1057.12 881.406 1057.12V1055.12C877.198 1055.12 873.357 1055.9 869.9 1057.46L870.725 1059.29ZM881.406 1057.12C885.411 1057.12 888.931 1057.84 891.988 1059.25L892.825 1057.44C889.465 1055.89 885.652 1055.12 881.406 1055.12V1057.12ZM891.992 1059.25C895.064 1060.65 897.464 1062.55 899.227 1064.94L900.836 1063.75C898.848 1061.06 896.165 1058.95 892.82 1057.43L891.992 1059.25ZM899.23 1064.94C901.001 1067.32 901.934 1070 902.032 1073.03L904.031 1072.97C903.92 1069.54 902.853 1066.45 900.833 1063.75L899.23 1064.94ZM903.031 1072H895.531V1074H903.031V1072ZM966.992 1106.5L966.096 1106.06L966.096 1106.06L966.992 1106.5ZM956.961 1117.88L957.492 1118.72L957.492 1118.72L956.961 1117.88ZM927.836 1117.88L927.304 1118.72L927.304 1118.72L927.836 1117.88ZM917.805 1106.5L918.701 1106.06L918.701 1106.06L917.805 1106.5ZM956.961 1060.12L957.492 1059.28L957.492 1059.28L956.961 1060.12ZM966.992 1071.5L966.096 1071.94L966.096 1071.94L966.992 1071.5ZM960.367 1074.97L959.466 1075.4L959.468 1075.41L960.367 1074.97ZM952.898 1066.31L952.367 1067.16L952.37 1067.16L952.898 1066.31ZM931.867 1066.31L931.339 1065.46L931.336 1065.47L931.867 1066.31ZM924.398 1074.97L923.499 1074.53L923.497 1074.54L924.398 1074.97ZM924.398 1103.03L923.497 1103.46L923.499 1103.47L924.398 1103.03ZM931.867 1111.69L931.336 1112.53L931.339 1112.54L931.867 1111.69ZM952.898 1111.69L952.37 1110.84L952.367 1110.84L952.898 1111.69ZM960.367 1103.03L959.468 1102.59L959.466 1102.6L960.367 1103.03ZM969.648 1089C969.648 1095.63 968.451 1101.31 966.096 1106.06L967.888 1106.94C970.408 1101.86 971.648 1095.87 971.648 1089H969.648ZM966.096 1106.06C963.733 1110.82 960.509 1114.47 956.429 1117.03L957.492 1118.72C961.913 1115.95 965.377 1112.01 967.888 1106.94L966.096 1106.06ZM956.429 1117.03C952.353 1119.59 947.686 1120.87 942.398 1120.87V1122.87C948.028 1122.87 953.069 1121.5 957.492 1118.72L956.429 1117.03ZM942.398 1120.87C937.111 1120.87 932.444 1119.59 928.367 1117.03L927.304 1118.72C931.728 1121.5 936.769 1122.87 942.398 1122.87V1120.87ZM928.367 1117.03C924.288 1114.47 921.064 1110.82 918.701 1106.06L916.909 1106.94C919.42 1112.01 922.884 1115.95 927.304 1118.72L928.367 1117.03ZM918.701 1106.06C916.346 1101.31 915.148 1095.63 915.148 1089H913.148C913.148 1095.87 914.389 1101.86 916.909 1106.94L918.701 1106.06ZM915.148 1089C915.148 1082.37 916.346 1076.69 918.701 1071.94L916.909 1071.06C914.389 1076.14 913.148 1082.13 913.148 1089H915.148ZM918.701 1071.94C921.064 1067.18 924.288 1063.53 928.367 1060.97L927.304 1059.28C922.884 1062.05 919.42 1065.99 916.909 1071.06L918.701 1071.94ZM928.367 1060.97C932.444 1058.41 937.111 1057.12 942.398 1057.12V1055.12C936.769 1055.12 931.728 1056.5 927.304 1059.28L928.367 1060.97ZM942.398 1057.12C947.686 1057.12 952.353 1058.41 956.429 1060.97L957.492 1059.28C953.069 1056.5 948.028 1055.12 942.398 1055.12V1057.12ZM956.429 1060.97C960.509 1063.53 963.733 1067.18 966.096 1071.94L967.888 1071.06C965.377 1065.99 961.913 1062.05 957.492 1059.28L956.429 1060.97ZM966.096 1071.94C968.451 1076.69 969.648 1082.37 969.648 1089H971.648C971.648 1082.13 970.408 1076.14 967.888 1071.06L966.096 1071.94ZM964.148 1089C964.148 1083.35 963.204 1078.52 961.266 1074.53L959.468 1075.41C961.239 1079.05 962.148 1083.57 962.148 1089H964.148ZM961.268 1074.54C959.365 1070.58 956.756 1067.54 953.427 1065.46L952.37 1067.16C955.333 1069.01 957.703 1071.74 959.466 1075.4L961.268 1074.54ZM953.429 1065.47C950.137 1063.4 946.451 1062.37 942.398 1062.37V1064.37C946.096 1064.37 949.41 1065.31 952.367 1067.16L953.429 1065.47ZM942.398 1062.37C938.346 1062.37 934.651 1063.4 931.339 1065.46L932.396 1067.16C935.375 1065.31 938.701 1064.37 942.398 1064.37V1062.37ZM931.336 1065.47C928.03 1067.54 925.423 1070.58 923.499 1074.53L925.298 1075.41C927.082 1071.74 929.455 1069 932.398 1067.16L931.336 1065.47ZM923.497 1074.54C921.582 1078.52 920.648 1083.35 920.648 1089H922.648C922.648 1083.56 923.548 1079.04 925.3 1075.4L923.497 1074.54ZM920.648 1089C920.648 1094.65 921.582 1099.48 923.497 1103.46L925.3 1102.6C923.548 1098.96 922.648 1094.44 922.648 1089H920.648ZM923.499 1103.47C925.423 1107.42 928.03 1110.46 931.336 1112.53L932.398 1110.84C929.455 1109 927.082 1106.26 925.298 1102.59L923.499 1103.47ZM931.339 1112.54C934.651 1114.6 938.346 1115.62 942.398 1115.62V1113.62C938.701 1113.62 935.375 1112.69 932.396 1110.84L931.339 1112.54ZM942.398 1115.62C946.451 1115.62 950.137 1114.6 953.429 1112.53L952.367 1110.84C949.41 1112.69 946.096 1113.62 942.398 1113.62V1115.62ZM953.427 1112.54C956.756 1110.46 959.365 1107.42 961.268 1103.46L959.466 1102.6C957.703 1106.26 955.333 1108.99 952.37 1110.84L953.427 1112.54ZM961.266 1103.47C963.204 1099.48 964.148 1094.65 964.148 1089H962.148C962.148 1094.43 961.239 1098.95 959.468 1102.59L961.266 1103.47ZM1034.02 1106.5L1033.13 1106.06L1033.13 1106.06L1034.02 1106.5ZM1023.99 1117.88L1024.52 1118.72L1024.52 1118.72L1023.99 1117.88ZM994.867 1117.88L994.336 1118.72L994.336 1118.72L994.867 1117.88ZM984.836 1106.5L985.732 1106.06L985.732 1106.06L984.836 1106.5ZM1023.99 1060.12L1024.52 1059.28L1024.52 1059.28L1023.99 1060.12ZM1034.02 1071.5L1033.13 1071.94L1033.13 1071.94L1034.02 1071.5ZM1027.4 1074.97L1026.5 1075.4L1026.5 1075.41L1027.4 1074.97ZM1019.93 1066.31L1019.4 1067.16L1019.4 1067.16L1019.93 1066.31ZM998.898 1066.31L998.37 1065.46L998.367 1065.47L998.898 1066.31ZM991.43 1074.97L990.53 1074.53L990.528 1074.54L991.43 1074.97ZM991.43 1103.03L990.528 1103.46L990.53 1103.47L991.43 1103.03ZM998.898 1111.69L998.367 1112.53L998.37 1112.54L998.898 1111.69ZM1019.93 1111.69L1019.4 1110.84L1019.4 1110.84L1019.93 1111.69ZM1027.4 1103.03L1026.5 1102.59L1026.5 1102.6L1027.4 1103.03ZM1036.68 1089C1036.68 1095.63 1035.48 1101.31 1033.13 1106.06L1034.92 1106.94C1037.44 1101.86 1038.68 1095.87 1038.68 1089H1036.68ZM1033.13 1106.06C1030.76 1110.82 1027.54 1114.47 1023.46 1117.03L1024.52 1118.72C1028.94 1115.95 1032.41 1112.01 1034.92 1106.94L1033.13 1106.06ZM1023.46 1117.03C1019.38 1119.59 1014.72 1120.87 1009.43 1120.87V1122.87C1015.06 1122.87 1020.1 1121.5 1024.52 1118.72L1023.46 1117.03ZM1009.43 1120.87C1004.14 1120.87 999.475 1119.59 995.399 1117.03L994.336 1118.72C998.759 1121.5 1003.8 1122.87 1009.43 1122.87V1120.87ZM995.399 1117.03C991.32 1114.47 988.095 1110.82 985.732 1106.06L983.94 1106.94C986.452 1112.01 989.915 1115.95 994.336 1118.72L995.399 1117.03ZM985.732 1106.06C983.377 1101.31 982.18 1095.63 982.18 1089H980.18C980.18 1095.87 981.42 1101.86 983.94 1106.94L985.732 1106.06ZM982.18 1089C982.18 1082.37 983.377 1076.69 985.732 1071.94L983.94 1071.06C981.42 1076.14 980.18 1082.13 980.18 1089H982.18ZM985.732 1071.94C988.095 1067.18 991.32 1063.53 995.399 1060.97L994.336 1059.28C989.915 1062.05 986.452 1065.99 983.94 1071.06L985.732 1071.94ZM995.399 1060.97C999.475 1058.41 1004.14 1057.12 1009.43 1057.12V1055.12C1003.8 1055.12 998.759 1056.5 994.336 1059.28L995.399 1060.97ZM1009.43 1057.12C1014.72 1057.12 1019.38 1058.41 1023.46 1060.97L1024.52 1059.28C1020.1 1056.5 1015.06 1055.12 1009.43 1055.12V1057.12ZM1023.46 1060.97C1027.54 1063.53 1030.76 1067.18 1033.13 1071.94L1034.92 1071.06C1032.41 1065.99 1028.94 1062.05 1024.52 1059.28L1023.46 1060.97ZM1033.13 1071.94C1035.48 1076.69 1036.68 1082.37 1036.68 1089H1038.68C1038.68 1082.13 1037.44 1076.14 1034.92 1071.06L1033.13 1071.94ZM1031.18 1089C1031.18 1083.35 1030.24 1078.52 1028.3 1074.53L1026.5 1075.41C1028.27 1079.05 1029.18 1083.57 1029.18 1089H1031.18ZM1028.3 1074.54C1026.4 1070.58 1023.79 1067.54 1020.46 1065.46L1019.4 1067.16C1022.36 1069.01 1024.73 1071.74 1026.5 1075.4L1028.3 1074.54ZM1020.46 1065.47C1017.17 1063.4 1013.48 1062.37 1009.43 1062.37V1064.37C1013.13 1064.37 1016.44 1065.31 1019.4 1067.16L1020.46 1065.47ZM1009.43 1062.37C1005.38 1062.37 1001.68 1063.4 998.37 1065.46L999.427 1067.16C1002.41 1065.31 1005.73 1064.37 1009.43 1064.37V1062.37ZM998.367 1065.47C995.061 1067.54 992.454 1070.58 990.53 1074.53L992.329 1075.41C994.114 1071.74 996.486 1069 999.429 1067.16L998.367 1065.47ZM990.528 1074.54C988.613 1078.52 987.68 1083.35 987.68 1089H989.68C989.68 1083.56 990.579 1079.04 992.331 1075.4L990.528 1074.54ZM987.68 1089C987.68 1094.65 988.613 1099.48 990.528 1103.46L992.331 1102.6C990.579 1098.96 989.68 1094.44 989.68 1089H987.68ZM990.53 1103.47C992.454 1107.42 995.061 1110.46 998.367 1112.53L999.429 1110.84C996.486 1109 994.114 1106.26 992.329 1102.59L990.53 1103.47ZM998.37 1112.54C1001.68 1114.6 1005.38 1115.62 1009.43 1115.62V1113.62C1005.73 1113.62 1002.41 1112.69 999.427 1110.84L998.37 1112.54ZM1009.43 1115.62C1013.48 1115.62 1017.17 1114.6 1020.46 1112.53L1019.4 1110.84C1016.44 1112.69 1013.13 1113.62 1009.43 1113.62V1115.62ZM1020.46 1112.54C1023.79 1110.46 1026.4 1107.42 1028.3 1103.46L1026.5 1102.6C1024.73 1106.26 1022.36 1108.99 1019.4 1110.84L1020.46 1112.54ZM1028.3 1103.47C1030.24 1099.48 1031.18 1094.65 1031.18 1089H1029.18C1029.18 1094.43 1028.27 1098.95 1026.5 1102.59L1028.3 1103.47ZM1101.46 1057H1102.46V1056H1101.46V1057ZM1101.46 1121V1122H1102.46V1121H1101.46ZM1093.96 1121L1093.14 1121.57L1093.44 1122H1093.96V1121ZM1059.09 1070.75L1059.91 1070.18L1059.61 1069.75H1059.09V1070.75ZM1058.46 1070.75V1069.75H1057.46V1070.75H1058.46ZM1058.46 1121V1122H1059.46V1121H1058.46ZM1050.71 1121H1049.71V1122H1050.71V1121ZM1050.71 1057V1056H1049.71V1057H1050.71ZM1058.21 1057L1059.03 1056.43L1058.73 1056H1058.21V1057ZM1093.21 1107.37L1092.39 1107.95L1092.69 1108.37H1093.21V1107.37ZM1093.84 1107.37V1108.37H1094.84V1107.37H1093.84ZM1093.84 1057V1056H1092.84V1057H1093.84ZM1100.46 1057V1121H1102.46V1057H1100.46ZM1101.46 1120H1093.96V1122H1101.46V1120ZM1094.78 1120.43L1059.91 1070.18L1058.26 1071.32L1093.14 1121.57L1094.78 1120.43ZM1059.09 1069.75H1058.46V1071.75H1059.09V1069.75ZM1057.46 1070.75V1121H1059.46V1070.75H1057.46ZM1058.46 1120H1050.71V1122H1058.46V1120ZM1051.71 1121V1057H1049.71V1121H1051.71ZM1050.71 1058H1058.21V1056H1050.71V1058ZM1057.39 1057.57L1092.39 1107.95L1094.03 1106.8L1059.03 1056.43L1057.39 1057.57ZM1093.21 1108.37H1093.84V1106.37H1093.21V1108.37ZM1094.84 1107.37V1057H1092.84V1107.37H1094.84ZM1093.84 1058H1101.46V1056H1093.84V1058Z" fill="black" mask="url(#path-4-outside-1_537_2708)"/>
</g>
<defs>
<filter id="filter0_d_537_2708" x="800.105" y="949.125" width="361.516" height="181" filterUnits="userSpaceOnUse" color-interpolation-filters="sRGB">
<feFlood flood-opacity="0" result="BackgroundImageFix"/>
<feColorMatrix in="SourceAlpha" type="matrix" values="0 0 0 0 0 0 0 0 0 0 0 0 0 0 0 0 0 0 127 0" result="hardAlpha"/>
<feOffset dy="4"/>
<feGaussianBlur stdDeviation="2"/>
<feComposite in2="hardAlpha" operator="out"/>
<feColorMatrix type="matrix" values="0 0 0 0 0 0 0 0 0 0 0 0 0 0 0 0 0 0 0.25 0"/>
<feBlend mode="normal" in2="BackgroundImageFix" result="effect1_dropShadow_537_2708"/>
<feBlend mode="normal" in="SourceGraphic" in2="effect1_dropShadow_537_2708" result="shape"/>
</filter>
</defs>
</svg>
